<svg width="691" height="594" viewBox="0 0 691 594" fill="none" xmlns="http://www.w3.org/2000/svg">
<g filter="url(#filter0_dg_270_5)">
<path d="M142 258C142 241.984 154.984 229 171 229H457C473.016 229 486 241.984 486 258V351C486 367.016 473.016 380 457 380H314H171C154.984 380 142 367.016 142 351V258Z" fill="#FDEAC1"/>
<path d="M142 258C142 241.984 154.984 229 171 229H457C473.016 229 486 241.984 486 258V351C486 367.016 473.016 380 457 380H314H171C154.984 380 142 367.016 142 351V258Z" fill="url(#paint0_linear_270_5)" fill-opacity="0.2"/>
<path d="M171 236.5H457C468.874 236.5 478.5 246.126 478.5 258V351C478.5 362.874 468.874 372.5 457 372.5H171C159.126 372.5 149.5 362.874 149.5 351V258L149.507 257.445C149.801 245.828 159.311 236.5 171 236.5Z" stroke="black" stroke-opacity="0.58" stroke-width="15"/>
<path d="M171 236.5H457C468.874 236.5 478.5 246.126 478.5 258V351C478.5 362.874 468.874 372.5 457 372.5H171C159.126 372.5 149.5 362.874 149.5 351V258L149.507 257.445C149.801 245.828 159.311 236.5 171 236.5Z" stroke="#080505" stroke-opacity="0.23" stroke-width="15"/>
</g>
<defs>
<filter id="filter0_dg_270_5" x="137" y="224" width="354" height="164" filterUnits="userSpaceOnUse" color-interpolation-filters="sRGB">
<feFlood flood-opacity="0" result="BackgroundImageFix"/>
<feColorMatrix in="SourceAlpha" type="matrix" values="0 0 0 0 0 0 0 0 0 0 0 0 0 0 0 0 0 0 127 0" result="hardAlpha"/>
<feOffset dy="4"/>
<feGaussianBlur stdDeviation="2"/>
<feComposite in2="hardAlpha" operator="out"/>
<feColorMatrix type="matrix" values="0 0 0 0 0 0 0 0 0 0 0 0 0 0 0 0 0 0 1 0"/>
<feBlend mode="normal" in2="BackgroundImageFix" result="effect1_dropShadow_270_5"/>
<feBlend mode="normal" in="SourceGraphic" in2="effect1_dropShadow_270_5" result="shape"/>
<feTurbulence type="fractalNoise" baseFrequency="0.99900001287460327 0.99900001287460327" numOctaves="3" seed="6544" />
<feDisplacementMap in="shape" scale="10" xChannelSelector="R" yChannelSelector="G" result="displacedImage" width="100%" height="100%" />
<feMerge result="effect2_texture_270_5">
<feMergeNode in="displacedImage"/>
</feMerge>
</filter>
<linearGradient id="paint0_linear_270_5" x1="931.994" y1="467.846" x2="975.542" y2="576.707" gradientUnits="userSpaceOnUse">
<stop stop-color="white" stop-opacity="0.6"/>
<stop offset="1" stop-color="#888080"/>
</linearGradient>
</defs>
</svg>
