<svg width="415" height="436" viewBox="0 0 415 436" fill="none" xmlns="http://www.w3.org/2000/svg">
<g clip-path="url(#clip0_269_2)">
<g filter="url(#filter0_dg_269_2)">
<path d="M7.82393 84.4646C4.92535 68.4442 15.7796 53.1773 31.8631 50.6524L320.007 5.41841C335.678 2.95823 350.418 13.5464 353.09 29.1831L405.698 337.07C408.335 352.501 398.249 367.24 382.91 370.369L265.659 394.289L100.059 427.9C84.1263 431.134 68.6483 420.64 65.7538 404.643L7.82393 84.4646Z" fill="#FBF3E1"/>
<path d="M7.82393 84.4646C4.92535 68.4442 15.7796 53.1773 31.8631 50.6524L320.007 5.41841C335.678 2.95823 350.418 13.5464 353.09 29.1831L405.698 337.07C408.335 352.501 398.249 367.24 382.91 370.369L265.659 394.289L100.059 427.9C84.1263 431.134 68.6483 420.64 65.7538 404.643L7.82393 84.4646Z" fill="url(#paint0_linear_269_2)" fill-opacity="0.2"/>
<path d="M15.204 83.129C13.0552 71.2519 21.1026 59.9331 33.0265 58.0612L321.17 12.8281C332.788 11.0041 343.716 18.8536 345.697 30.4463L398.305 338.333C400.26 349.773 392.783 360.7 381.411 363.02L264.16 386.94L98.5668 420.55C86.7549 422.947 75.2803 415.168 73.1342 403.308L15.204 83.129Z" stroke="black" stroke-opacity="0.58" stroke-width="15"/>
<path d="M15.204 83.129C13.0552 71.2519 21.1026 59.9331 33.0265 58.0612L321.17 12.8281C332.788 11.0041 343.716 18.8536 345.697 30.4463L398.305 338.333C400.26 349.773 392.783 360.7 381.411 363.02L264.16 386.94L98.5668 420.55C86.7549 422.947 75.2803 415.168 73.1342 403.308L15.204 83.129Z" stroke="#080505" stroke-opacity="0.23" stroke-width="15"/>
</g>
</g>
<defs>
<filter id="filter0_dg_269_2" x="2.35547" y="0.0634766" width="408.762" height="436.422" filterUnits="userSpaceOnUse" color-interpolation-filters="sRGB">
<feFlood flood-opacity="0" result="BackgroundImageFix"/>
<feColorMatrix in="SourceAlpha" type="matrix" values="0 0 0 0 0 0 0 0 0 0 0 0 0 0 0 0 0 0 127 0" result="hardAlpha"/>
<feOffset dy="4"/>
<feGaussianBlur stdDeviation="2"/>
<feComposite in2="hardAlpha" operator="out"/>
<feColorMatrix type="matrix" values="0 0 0 0 0 0 0 0 0 0 0 0 0 0 0 0 0 0 1 0"/>
<feBlend mode="normal" in2="BackgroundImageFix" result="effect1_dropShadow_269_2"/>
<feBlend mode="normal" in="SourceGraphic" in2="effect1_dropShadow_269_2" result="shape"/>
<feTurbulence type="fractalNoise" baseFrequency="0.99900001287460327 0.99900001287460327" numOctaves="3" seed="6544" />
<feDisplacementMap in="shape" scale="10" xChannelSelector="R" yChannelSelector="G" result="displacedImage" width="100%" height="100%" />
<feMerge result="effect2_texture_269_2">
<feMergeNode in="displacedImage"/>
</feMerge>
</filter>
<linearGradient id="paint0_linear_269_2" x1="994.687" y1="-452.598" x2="1212.36" y2="-478.464" gradientUnits="userSpaceOnUse">
<stop stop-color="white" stop-opacity="0.6"/>
<stop offset="1" stop-color="#888080"/>
</linearGradient>
<clipPath id="clip0_269_2">
<rect width="415" height="436" fill="white"/>
</clipPath>
</defs>
</svg>
