<svg width="843" height="899" viewBox="0 0 843 899" fill="none" xmlns="http://www.w3.org/2000/svg">
<path d="M366 152C468.173 152 551 234.827 551 337C551 373.621 540.358 407.755 522 436.482V754L365 651L210 754V436.482C191.642 407.755 181 373.621 181 337C181 234.827 263.827 152 366 152Z" fill="#BB0A0A"/>
<path d="M366 176C450.5 176 519 242.933 519 325.5C519 408.067 450.5 475 366 475C281.5 475 213 408.067 213 325.5C213 242.933 281.5 176 366 176ZM366 201C296.964 201 241 256.964 241 326C241 395.036 296.964 451 366 451C435.036 451 491 395.036 491 326C491 256.964 435.036 201 366 201Z" fill="#7E1111"/>
<g filter="url(#filter0_d_270_3)">
<path d="M359.634 220.504C361.785 214.174 370.739 214.174 372.89 220.504L393.894 282.316C394.859 285.155 397.524 287.064 400.522 287.064H467.803C474.66 287.064 477.428 295.901 471.797 299.813L417.913 337.246C415.349 339.027 414.274 342.291 415.279 345.247L435.987 406.186C438.159 412.58 430.911 418.04 425.365 414.187L370.256 375.903C367.854 374.234 364.669 374.234 362.268 375.903L307.159 414.187C301.612 418.04 294.364 412.58 296.537 406.186L317.245 345.247C318.249 342.291 317.175 339.027 314.611 337.246L260.727 299.813C255.096 295.901 257.864 287.064 264.721 287.064H332.002C335 287.064 337.665 285.155 338.63 282.316L359.634 220.504Z" fill="#FFD700"/>
</g>
<defs>
<filter id="filter0_d_270_3" x="257.708" y="215.756" width="224.108" height="206.713" filterUnits="userSpaceOnUse" color-interpolation-filters="sRGB">
<feFlood flood-opacity="0" result="BackgroundImageFix"/>
<feColorMatrix in="SourceAlpha" type="matrix" values="0 0 0 0 0 0 0 0 0 0 0 0 0 0 0 0 0 0 127 0" result="hardAlpha"/>
<feOffset dx="7" dy="7"/>
<feComposite in2="hardAlpha" operator="out"/>
<feColorMatrix type="matrix" values="0 0 0 0 0 0 0 0 0 0 0 0 0 0 0 0 0 0 0.25 0"/>
<feBlend mode="normal" in2="BackgroundImageFix" result="effect1_dropShadow_270_3"/>
<feBlend mode="normal" in="SourceGraphic" in2="effect1_dropShadow_270_3" result="shape"/>
</filter>
</defs>
</svg>
