<svg width="3180" height="1204" viewBox="0 0 3180 1204" fill="none" xmlns="http://www.w3.org/2000/svg">
<g clip-path="url(#clip0_270_12)">
<g filter="url(#filter0_dg_270_12)">
<path d="M0 192C0 175.984 12.9837 163 29 163H3025C3041.02 163 3054 175.984 3054 192V331.124C3054 345.257 3043.81 357.331 3029.88 359.71L33.8806 871.216C16.1702 874.239 0 860.596 0 842.629V192Z" fill="#FDEAC1"/>
<path d="M0 192C0 175.984 12.9837 163 29 163H3025C3041.02 163 3054 175.984 3054 192V331.124C3054 345.257 3043.81 357.331 3029.88 359.71L33.8806 871.216C16.1702 874.239 0 860.596 0 842.629V192Z" fill="url(#paint0_linear_270_12)" fill-opacity="0.2"/>
<path d="M29 170.5H3025C3036.87 170.5 3046.5 180.126 3046.5 192V331.124C3046.5 341.602 3038.95 350.554 3028.62 352.317L32.6182 863.822C19.4881 866.064 7.5 855.949 7.5 842.629V192L7.50684 191.445C7.80106 179.828 17.3113 170.5 29 170.5Z" stroke="black" stroke-opacity="0.58" stroke-width="15"/>
<path d="M29 170.5H3025C3036.87 170.5 3046.5 180.126 3046.5 192V331.124C3046.5 341.602 3038.95 350.554 3028.62 352.317L32.6182 863.822C19.4881 866.064 7.5 855.949 7.5 842.629V192L7.50684 191.445C7.80106 179.828 17.3113 170.5 29 170.5Z" stroke="#080505" stroke-opacity="0.23" stroke-width="15"/>
</g>
</g>
<defs>
<filter id="filter0_dg_270_12" x="-5" y="158" width="3064" height="721.637" filterUnits="userSpaceOnUse" color-interpolation-filters="sRGB">
<feFlood flood-opacity="0" result="BackgroundImageFix"/>
<feColorMatrix in="SourceAlpha" type="matrix" values="0 0 0 0 0 0 0 0 0 0 0 0 0 0 0 0 0 0 127 0" result="hardAlpha"/>
<feOffset dy="4"/>
<feGaussianBlur stdDeviation="2"/>
<feComposite in2="hardAlpha" operator="out"/>
<feColorMatrix type="matrix" values="0 0 0 0 0 0 0 0 0 0 0 0 0 0 0 0 0 0 1 0"/>
<feBlend mode="normal" in2="BackgroundImageFix" result="effect1_dropShadow_270_12"/>
<feBlend mode="normal" in="SourceGraphic" in2="effect1_dropShadow_270_12" result="shape"/>
<feTurbulence type="fractalNoise" baseFrequency="0.99900001287460327 0.99900001287460327" numOctaves="3" seed="6544" />
<feDisplacementMap in="shape" scale="10" xChannelSelector="R" yChannelSelector="G" result="displacedImage" width="100%" height="100%" />
<feMerge result="effect2_texture_270_12">
<feMergeNode in="displacedImage"/>
</feMerge>
</filter>
<linearGradient id="paint0_linear_270_12" x1="7013.49" y1="935.38" x2="7135.19" y2="1506.57" gradientUnits="userSpaceOnUse">
<stop stop-color="white" stop-opacity="0.6"/>
<stop offset="1" stop-color="#888080"/>
</linearGradient>
<clipPath id="clip0_270_12">
<rect width="3180" height="1204" fill="white"/>
</clipPath>
</defs>
</svg>
