<svg width="534" height="283" viewBox="0 0 534 283" fill="none" xmlns="http://www.w3.org/2000/svg">
<g clip-path="url(#clip0_282_6)">
<g filter="url(#filter0_dg_282_6)">
<path d="M63.2066 101.5C77.4825 101.5 89.6349 91.1103 91.8541 77.008L99.6459 27.492C101.865 13.3897 114.018 3 128.293 3H502C518.016 3 531 15.9837 531 32V247C531 263.016 518.016 276 502 276H267H32C15.9837 276 3 263.016 3 247V130.5C3 114.484 15.9837 101.5 32 101.5H63.2066Z" fill="#FFD376"/>
<path d="M63.2066 101.5C77.4825 101.5 89.6349 91.1103 91.8541 77.008L99.6459 27.492C101.865 13.3897 114.018 3 128.293 3H502C518.016 3 531 15.9837 531 32V247C531 263.016 518.016 276 502 276H267H32C15.9837 276 3 263.016 3 247V130.5C3 114.484 15.9837 101.5 32 101.5H63.2066Z" fill="url(#paint0_linear_282_6)" fill-opacity="0.2"/>
<path d="M128.293 10.5H502C513.874 10.5 523.5 20.1259 523.5 32V247C523.5 258.874 513.874 268.5 502 268.5H32C20.1259 268.5 10.5 258.874 10.5 247V130.5C10.5 118.626 20.1259 109 32 109H63.207C81.1747 109 96.4696 95.9232 99.2627 78.1738L107.055 28.6582C108.7 18.2032 117.709 10.5002 128.293 10.5Z" stroke="black" stroke-opacity="0.58" stroke-width="15"/>
<path d="M128.293 10.5H502C513.874 10.5 523.5 20.1259 523.5 32V247C523.5 258.874 513.874 268.5 502 268.5H32C20.1259 268.5 10.5 258.874 10.5 247V130.5C10.5 118.626 20.1259 109 32 109H63.207C81.1747 109 96.4696 95.9232 99.2627 78.1738L107.055 28.6582C108.7 18.2032 117.709 10.5002 128.293 10.5Z" stroke="#080505" stroke-opacity="0.23" stroke-width="15"/>
</g>
</g>
<defs>
<filter id="filter0_dg_282_6" x="-2" y="-2" width="538" height="286" filterUnits="userSpaceOnUse" color-interpolation-filters="sRGB">
<feFlood flood-opacity="0" result="BackgroundImageFix"/>
<feColorMatrix in="SourceAlpha" type="matrix" values="0 0 0 0 0 0 0 0 0 0 0 0 0 0 0 0 0 0 127 0" result="hardAlpha"/>
<feOffset dy="4"/>
<feGaussianBlur stdDeviation="2"/>
<feComposite in2="hardAlpha" operator="out"/>
<feColorMatrix type="matrix" values="0 0 0 0 0 0 0 0 0 0 0 0 0 0 0 0 0 0 1 0"/>
<feBlend mode="normal" in2="BackgroundImageFix" result="effect1_dropShadow_282_6"/>
<feBlend mode="normal" in="SourceGraphic" in2="effect1_dropShadow_282_6" result="shape"/>
<feTurbulence type="fractalNoise" baseFrequency="0.99900001287460327 0.99900001287460327" numOctaves="3" seed="6544" />
<feDisplacementMap in="shape" scale="10" xChannelSelector="R" yChannelSelector="G" result="displacedImage" width="100%" height="100%" />
<feMerge result="effect2_texture_282_6">
<feMergeNode in="displacedImage"/>
</feMerge>
</filter>
<linearGradient id="paint0_linear_282_6" x1="1215.55" y1="298.322" x2="1303.58" y2="485.149" gradientUnits="userSpaceOnUse">
<stop stop-color="white" stop-opacity="0.6"/>
<stop offset="1" stop-color="#888080"/>
</linearGradient>
<clipPath id="clip0_282_6">
<rect width="534" height="283" fill="white"/>
</clipPath>
</defs>
</svg>
