<svg width="353" height="348" viewBox="0 0 353 348" fill="none" xmlns="http://www.w3.org/2000/svg">
<rect width="353" height="348" fill="white"/>
<path d="M205.498 112.269C216.042 114.641 225.909 118.802 234.762 124.42L259.777 97L287.85 122.611L262.073 150.866L261.941 150.745C266.014 156.73 269.406 163.214 272.007 170.087L300.589 170.347L300.245 208.345L277.858 208.142C277.241 219.472 274.596 230.261 270.279 240.155L294.271 254.571L274.572 287.355L248.013 271.396C236.148 282.333 221.432 290.221 205.105 293.819L205.344 320.245L167.345 320.588L167.107 294.278C149.796 290.905 134.202 282.73 121.768 271.195L93.8398 287.003L75 253.718L99.5703 239.81C95.3506 230.029 92.7612 219.381 92.1445 208.207L69 207.998L69.3438 170L97.9277 170.259C100.659 162.999 104.272 156.172 108.636 149.906L107.667 150.733L83 121.828L112.094 97L135.403 124.315C144.978 118.267 155.734 113.919 167.246 111.693L167 78.2822L205.246 78L205.498 112.269ZM185 151C156.281 151 133 174.057 133 202.5C133 230.943 156.281 254 185 254C213.719 254 237 230.943 237 202.5C237 174.057 213.719 151 185 151Z" fill="#080707"/>
</svg>
