<svg width="917" height="298" viewBox="0 0 917 298" fill="none" xmlns="http://www.w3.org/2000/svg">
<rect width="917" height="298" fill="white"/>
<path d="M153 125.319V218.142L200.211 245H820.413L852 224.975V125.319L820.413 106H188.324L153 125.319Z" fill="black"/>
<path d="M147 119.319V212.142L194.076 239H812.503L844 218.975V119.319L812.503 100H182.223L147 119.319Z" fill="white"/>
<mask id="path-3-inside-1_73_23" fill="white">
<path d="M825 204.769V121.923L786.542 100C524.114 101.373 180.922 100 180.922 100L139 121.923V204.769L180.922 229H786.542L825 204.769Z"/>
</mask>
<path d="M825 204.769V121.923L786.542 100C524.114 101.373 180.922 100 180.922 100L139 121.923V204.769L180.922 229H786.542L825 204.769Z" fill="black"/>
<path d="M825.5 121.923C825.167 121.923 824.833 121.923 824.5 121.923C824.5 147.963 824.5 174.003 824.5 200.042C824.5 201.618 824.5 203.194 824.5 204.769L824.733 204.346C811.914 212.423 799.095 220.5 786.276 228.577L786.542 228.5C774.416 228.5 762.289 228.5 750.162 228.5C734.111 228.5 718.059 228.5 702.008 228.5C528.312 228.5 354.617 228.5 180.922 228.5L181.172 228.567C167.198 220.49 153.224 212.413 139.25 204.336L139.5 204.769C139.5 177.154 139.5 149.538 139.5 121.923L139.232 122.366C153.206 115.058 167.18 107.751 181.154 100.443L180.92 100.5C371.439 101.152 562.08 101.418 752.734 100.66C763.898 100.613 775.403 100.558 786.545 100.5L786.295 100.435C799.114 107.742 811.933 115.05 824.752 122.357C824.917 122.068 825.083 121.778 825.248 121.489C812.428 114.181 799.609 106.873 786.79 99.5657L786.674 99.4994L786.54 99.5001C775.398 99.5584 763.893 99.6127 752.73 99.6603C562.08 100.417 371.44 100.152 180.924 99.5L180.691 99.5569C166.716 106.865 152.742 114.172 138.768 121.48L138.5 121.62V121.923C138.5 149.538 138.5 177.154 138.5 204.769V205.058L138.75 205.202C152.724 213.279 166.698 221.356 180.672 229.433L180.788 229.5H180.922C354.617 229.5 528.312 229.5 702.008 229.5C718.059 229.5 734.111 229.5 750.162 229.5C762.289 229.5 774.416 229.5 786.542 229.5H786.687L786.809 229.423C799.628 221.346 812.447 213.269 825.267 205.192L825.5 205.045V204.769C825.5 203.194 825.5 201.618 825.5 200.042C825.5 174.003 825.5 147.963 825.5 121.923ZM824.5 121.923H825.5V121.633L825.248 121.489L824.752 122.357L824.5 121.923Z" fill="black" mask="url(#path-3-inside-1_73_23)"/>
<mask id="path-5-inside-2_73_23" fill="white">
<path d="M812 199.324V125.505L776.987 105L182.829 108.619L153 125.505V203.502L188.397 222H776.987L812 199.324Z"/>
</mask>
<path d="M812 199.324V125.505L776.987 105L182.829 108.619L153 125.505V203.502L188.397 222H776.987L812 199.324Z" fill="#FFF4F4"/>
<path d="M811.5 199.324C811.833 199.324 812.167 199.324 812.5 199.324C812.483 174.718 812.467 150.111 812.451 125.505L812.452 125.247L812.228 125.116C812.016 124.992 811.805 124.868 811.593 124.744C800.129 118.041 788.665 111.337 777.202 104.633L777.101 104.574L776.984 104.574C578.932 105.904 380.88 107.206 182.828 108.482L182.792 108.483L182.762 108.5C172.821 114.132 162.88 119.765 152.939 125.397L152.876 125.433L152.876 125.505C152.884 151.504 152.893 177.503 152.901 203.502L152.901 203.562L152.954 203.59C164.755 209.753 176.555 215.915 188.356 222.078L188.397 222.088C373.647 222.035 558.897 222.006 744.148 222.001C755.094 222.001 766.04 222 776.987 222C786.039 216.137 795.092 210.274 804.145 204.411C806.763 202.715 809.472 201.159 812.272 199.743C812.091 199.464 811.909 199.184 811.728 198.904C809.291 200.88 806.763 202.715 804.145 204.411C795.092 210.274 786.039 216.137 776.986 222C766.04 222 755.094 221.999 744.148 221.999C558.897 221.994 373.647 221.965 188.397 221.912L188.437 221.922C176.64 215.753 164.843 209.583 153.046 203.414L153.099 203.502C153.107 177.503 153.116 151.504 153.124 125.505L153.061 125.613C163.006 119.988 172.951 114.362 182.896 108.737L182.829 108.755C380.883 107.618 578.936 106.509 776.989 105.426L776.771 105.367C788.227 112.086 799.682 118.804 811.137 125.523C811.349 125.647 811.56 125.771 811.772 125.895L811.549 125.505C811.533 150.111 811.517 174.718 811.5 199.324ZM812.5 199.324H811.5L811.728 198.904L812.272 199.743L812.5 199.628L812.5 199.324Z" fill="black" mask="url(#path-5-inside-2_73_23)"/>
<path d="M232.093 139.8H252.813C255.613 139.8 258.086 140.395 260.233 141.585C262.379 142.752 264.059 144.432 265.273 146.625C266.486 148.795 267.093 151.373 267.093 154.36C267.093 157.323 266.603 159.727 265.623 161.57C264.666 163.39 263.511 164.755 262.158 165.665C260.804 166.575 259.556 167.158 258.413 167.415L269.473 186H254.283L244.763 168.465H245.673V186H232.093V139.8ZM245.673 159.295H247.913C249.149 159.295 250.328 159.003 251.448 158.42C252.591 157.837 253.163 156.635 253.163 154.815C253.163 152.995 252.614 151.793 251.518 151.21C250.421 150.627 249.254 150.335 248.018 150.335H245.673V159.295ZM291.781 174.345C291.897 174.905 292.189 175.383 292.656 175.78C293.146 176.153 293.764 176.445 294.511 176.655C295.281 176.865 296.144 176.97 297.101 176.97C298.127 176.97 299.131 176.923 300.111 176.83C301.091 176.737 301.989 176.585 302.806 176.375C303.622 176.165 304.276 175.897 304.766 175.57L309.701 184.215C309.257 184.495 308.522 184.845 307.496 185.265C306.492 185.662 305.069 186.023 303.226 186.35C301.406 186.677 299.049 186.84 296.156 186.84C292.912 186.84 289.972 186.292 287.336 185.195C284.699 184.098 282.599 182.407 281.036 180.12C279.496 177.81 278.726 174.882 278.726 171.335C278.726 168.535 279.367 166.015 280.651 163.775C281.934 161.512 283.789 159.727 286.216 158.42C288.642 157.09 291.582 156.425 295.036 156.425C298.372 156.425 301.254 156.985 303.681 158.105C306.131 159.225 308.009 160.952 309.316 163.285C310.646 165.595 311.311 168.558 311.311 172.175C311.311 172.362 311.299 172.735 311.276 173.295C311.276 173.832 311.252 174.182 311.206 174.345H291.781ZM298.326 168.71C298.302 167.94 298.151 167.298 297.871 166.785C297.614 166.272 297.264 165.898 296.821 165.665C296.377 165.408 295.852 165.28 295.246 165.28C294.709 165.28 294.196 165.397 293.706 165.63C293.239 165.84 292.854 166.202 292.551 166.715C292.247 167.205 292.084 167.87 292.061 168.71H298.326ZM317.763 157.265H322.138V145.47H335.753V157.265H341.563V168.465H335.753V172.175C335.753 173.015 335.846 173.785 336.033 174.485C336.243 175.185 336.779 175.535 337.643 175.535C338.109 175.535 338.541 175.418 338.938 175.185C339.358 174.952 339.614 174.788 339.708 174.695L344.188 184.39C344.001 184.553 343.394 184.833 342.368 185.23C341.364 185.627 340.081 185.988 338.518 186.315C336.978 186.665 335.286 186.84 333.443 186.84C330.129 186.84 327.411 185.942 325.288 184.145C323.188 182.348 322.138 179.607 322.138 175.92V168.465H317.763V157.265ZM364.47 169.76C364.47 171.533 364.75 172.957 365.31 174.03C365.893 175.103 366.978 175.64 368.565 175.64C370.198 175.64 371.295 175.103 371.855 174.03C372.415 172.957 372.695 171.533 372.695 169.76V157.265H386.275V171.09C386.275 174.357 385.575 177.168 384.175 179.525C382.798 181.882 380.791 183.69 378.155 184.95C375.518 186.21 372.321 186.84 368.565 186.84C364.831 186.84 361.646 186.21 359.01 184.95C356.396 183.69 354.39 181.882 352.99 179.525C351.613 177.168 350.925 174.357 350.925 171.09V157.265H364.47V169.76ZM408.027 186H394.237V157.265H408.027V161.36H407.852C408.108 160.847 408.587 160.205 409.287 159.435C410.01 158.665 411.013 157.977 412.297 157.37C413.603 156.74 415.237 156.425 417.197 156.425C418.503 156.425 419.752 156.647 420.942 157.09C422.132 157.51 423.018 157.93 423.602 158.35L418.317 169.48C418.013 169.013 417.442 168.547 416.602 168.08C415.762 167.59 414.712 167.345 413.452 167.345C412.098 167.345 411.025 167.625 410.232 168.185C409.438 168.722 408.867 169.398 408.517 170.215C408.19 171.008 408.027 171.79 408.027 172.56V186ZM452.246 156.425C454.37 156.425 456.423 156.845 458.406 157.685C460.413 158.502 462.058 159.82 463.341 161.64C464.648 163.437 465.301 165.805 465.301 168.745V186H451.511V170.88C451.511 169.387 451.138 168.208 450.391 167.345C449.668 166.458 448.688 166.015 447.451 166.015C446.635 166.015 445.876 166.213 445.176 166.61C444.5 167.007 443.963 167.567 443.566 168.29C443.17 169.013 442.971 169.877 442.971 170.88V186H429.181V157.265H442.971V160.87C443.275 160.123 443.87 159.412 444.756 158.735C445.643 158.058 446.74 157.51 448.046 157.09C449.353 156.647 450.753 156.425 452.246 156.425ZM495.579 157.265H499.954V145.47H513.569V157.265H519.379V168.465H513.569V172.175C513.569 173.015 513.662 173.785 513.849 174.485C514.059 175.185 514.596 175.535 515.459 175.535C515.926 175.535 516.357 175.418 516.754 175.185C517.174 174.952 517.431 174.788 517.524 174.695L522.004 184.39C521.817 184.553 521.211 184.833 520.184 185.23C519.181 185.627 517.897 185.988 516.334 186.315C514.794 186.665 513.102 186.84 511.259 186.84C507.946 186.84 505.227 185.942 503.104 184.145C501.004 182.348 499.954 179.607 499.954 175.92V168.465H495.579V157.265ZM544.771 186.84C541.504 186.84 538.599 186.21 536.056 184.95C533.513 183.667 531.518 181.893 530.071 179.63C528.624 177.343 527.901 174.707 527.901 171.72C527.901 168.733 528.624 166.097 530.071 163.81C531.518 161.5 533.513 159.692 536.056 158.385C538.599 157.078 541.504 156.425 544.771 156.425C548.038 156.425 550.919 157.078 553.416 158.385C555.913 159.692 557.861 161.5 559.261 163.81C560.684 166.097 561.396 168.733 561.396 171.72C561.396 174.707 560.684 177.343 559.261 179.63C557.861 181.893 555.913 183.667 553.416 184.95C550.919 186.21 548.038 186.84 544.771 186.84ZM544.771 175.64C545.541 175.64 546.194 175.488 546.731 175.185C547.268 174.858 547.676 174.392 547.956 173.785C548.259 173.178 548.411 172.467 548.411 171.65C548.411 170.833 548.259 170.122 547.956 169.515C547.676 168.908 547.268 168.442 546.731 168.115C546.194 167.788 545.541 167.625 544.771 167.625C544.001 167.625 543.336 167.788 542.776 168.115C542.239 168.442 541.819 168.908 541.516 169.515C541.213 170.122 541.061 170.833 541.061 171.65C541.061 172.467 541.213 173.178 541.516 173.785C541.819 174.392 542.239 174.858 542.776 175.185C543.336 175.488 544.001 175.64 544.771 175.64ZM601.557 151.56H591.582V139.8H625.077V151.56H615.102V186H601.557V151.56ZM631.795 186V157.265H645.55V186H631.795ZM638.83 154.08C636.777 154.08 635.027 153.357 633.58 151.91C632.157 150.44 631.445 148.702 631.445 146.695C631.445 144.688 632.157 142.95 633.58 141.48C635.027 139.987 636.777 139.24 638.83 139.24C640.184 139.24 641.42 139.578 642.54 140.255C643.66 140.932 644.559 141.83 645.235 142.95C645.935 144.07 646.285 145.318 646.285 146.695C646.285 148.702 645.55 150.44 644.08 151.91C642.634 153.357 640.884 154.08 638.83 154.08ZM653.298 157.265H657.673V145.47H671.288V157.265H677.098V168.465H671.288V172.175C671.288 173.015 671.381 173.785 671.568 174.485C671.778 175.185 672.315 175.535 673.178 175.535C673.645 175.535 674.076 175.418 674.473 175.185C674.893 174.952 675.15 174.788 675.243 174.695L679.723 184.39C679.536 184.553 678.93 184.833 677.903 185.23C676.9 185.627 675.616 185.988 674.053 186.315C672.513 186.665 670.821 186.84 668.978 186.84C665.665 186.84 662.946 185.942 660.823 184.145C658.723 182.348 657.673 179.607 657.673 175.92V168.465H653.298V157.265ZM700.53 186H686.74V137.84H700.53V186ZM722.015 174.345C722.132 174.905 722.424 175.383 722.89 175.78C723.38 176.153 723.999 176.445 724.745 176.655C725.515 176.865 726.379 176.97 727.335 176.97C728.362 176.97 729.365 176.923 730.345 176.83C731.325 176.737 732.224 176.585 733.04 176.375C733.857 176.165 734.51 175.897 735 175.57L739.935 184.215C739.492 184.495 738.757 184.845 737.73 185.265C736.727 185.662 735.304 186.023 733.46 186.35C731.64 186.677 729.284 186.84 726.39 186.84C723.147 186.84 720.207 186.292 717.57 185.195C714.934 184.098 712.834 182.407 711.27 180.12C709.73 177.81 708.96 174.882 708.96 171.335C708.96 168.535 709.602 166.015 710.885 163.775C712.169 161.512 714.024 159.727 716.45 158.42C718.877 157.09 721.817 156.425 725.27 156.425C728.607 156.425 731.489 156.985 733.915 158.105C736.365 159.225 738.244 160.952 739.55 163.285C740.88 165.595 741.545 168.558 741.545 172.175C741.545 172.362 741.534 172.735 741.51 173.295C741.51 173.832 741.487 174.182 741.44 174.345H722.015ZM728.56 168.71C728.537 167.94 728.385 167.298 728.105 166.785C727.849 166.272 727.499 165.898 727.055 165.665C726.612 165.408 726.087 165.28 725.48 165.28C724.944 165.28 724.43 165.397 723.94 165.63C723.474 165.84 723.089 166.202 722.785 166.715C722.482 167.205 722.319 167.87 722.295 168.71H728.56Z" fill="black"/>
</svg>
