<svg width="423" height="494" viewBox="0 0 423 494" fill="none" xmlns="http://www.w3.org/2000/svg">
<rect width="423" height="494" fill="white"/>
<path d="M95 187.556V387.227L112.628 445H344.206L356 401.924V187.556L344.206 146H108.19L95 187.556Z" fill="black"/>
<path d="M94 173.556V373.227L111.358 431H339.386L351 387.924V173.556L339.386 132H106.987L94 173.556Z" fill="white"/>
<mask id="path-3-inside-1_73_49" fill="white">
<path d="M346 356.97V179.075L331.592 132C233.278 134.947 104.706 132 104.706 132L89 179.075V356.97L104.706 409H331.592L346 356.97Z"/>
</mask>
<path d="M346 356.97V179.075L331.592 132C233.278 134.947 104.706 132 104.706 132L89 179.075V356.97L104.706 409H331.592L346 356.97Z" fill="black"/>
<path d="M346.5 179.075C346.167 179.075 345.833 179.075 345.5 179.075C345.5 196.021 345.5 212.968 345.5 229.914C345.5 248.692 345.5 267.469 345.5 286.247C345.5 296.693 345.5 307.139 345.5 317.585C345.5 330.713 345.5 343.841 345.5 356.97L345.518 356.836C340.716 374.18 335.913 391.523 331.111 408.867L331.592 408.5C255.963 408.5 180.335 408.5 104.706 408.5L105.184 408.856C99.949 391.512 94.7139 374.169 89.4787 356.825L89.5 356.97C89.5 297.671 89.5 238.373 89.5 179.075L89.4743 179.233C94.7095 163.542 99.9447 147.85 105.18 132.158L104.694 132.5C179.671 133.951 254.933 134.575 330.011 132.547C330.544 132.532 331.076 132.516 331.607 132.5L331.114 132.147C335.917 147.838 340.719 163.53 345.522 179.221C345.841 179.124 346.159 179.026 346.478 178.929C341.676 163.237 336.873 147.546 332.071 131.854L331.959 131.489L331.577 131.5C331.046 131.516 330.514 131.532 329.982 131.548C254.936 133.574 179.675 132.951 104.717 131.5L104.348 131.492L104.231 131.842C98.9961 147.533 93.7609 163.225 88.5257 178.917L88.5 179.075C88.5 238.373 88.5 297.671 88.5 356.97L88.5213 357.114C93.7565 374.458 98.9917 391.801 104.227 409.145L104.334 409.5H104.706C180.334 409.5 255.963 409.5 331.592 409.5H331.973L332.074 409.133C336.877 391.79 341.679 374.446 346.482 357.103L346.5 356.97C346.5 343.841 346.5 330.713 346.5 317.585C346.5 307.139 346.5 296.693 346.5 286.247C346.5 267.469 346.5 248.692 346.5 229.914C346.5 212.968 346.5 196.021 346.5 179.075ZM345.5 179.075H346.5L346.478 178.929L345.522 179.221L345.5 179.075Z" fill="black" mask="url(#path-3-inside-1_73_49)"/>
<mask id="path-5-inside-2_73_49" fill="white">
<path d="M340 345.965V186.34L326.983 142H108.16L95 186.34V355L108.16 395H326.983L340 345.965Z"/>
</mask>
<path d="M340 345.965V186.34L326.983 142H108.16L95 186.34V355L108.16 395H326.983L340 345.965Z" fill="#FFF4F4"/>
<path d="M339.5 345.965C339.833 345.965 340.167 345.965 340.5 345.965C340.483 330.111 340.467 314.257 340.451 298.403C340.413 261.049 340.378 223.695 340.345 186.34L340.331 186.243C335.979 171.467 331.628 156.69 327.276 141.914L327.212 141.694L326.983 141.694C254.042 141.754 181.101 141.806 108.16 141.848L108.046 141.848L108.014 141.957C103.636 156.739 99.258 171.522 94.8793 186.304L94.8741 186.34C94.9039 242.56 94.9285 298.78 94.9477 355L94.9503 355.016C99.3414 368.348 103.732 381.68 108.123 395.012L108.131 395.039L108.16 395.039C181.101 395.017 254.042 395.005 326.983 395.001C327.255 393.978 327.526 392.957 327.798 391.935C331.354 378.535 334.911 365.135 338.468 351.735C338.979 349.812 339.65 347.931 340.483 346.093C340.161 346.008 339.839 345.922 339.517 345.837C339.328 347.846 338.979 349.812 338.468 351.735C334.911 365.135 331.354 378.535 327.796 391.934C327.524 392.956 327.253 393.978 326.982 395C254.042 394.995 181.101 394.983 108.16 394.961L108.196 394.988C103.814 381.653 99.4316 368.318 95.0497 354.984L95.0523 355C95.0715 298.78 95.0961 242.56 95.1259 186.34L95.1207 186.376C99.5151 171.598 103.91 156.821 108.305 142.043L108.16 142.152C181.101 142.194 254.042 142.246 326.983 142.306L326.689 142.086C331.016 156.87 335.343 171.654 339.669 186.437L339.655 186.34C339.622 223.695 339.587 261.049 339.549 298.403C339.533 314.257 339.517 330.111 339.5 345.965ZM340.5 345.965H339.5L339.517 345.837L340.483 346.093L340.5 345.965Z" fill="black" mask="url(#path-5-inside-2_73_49)"/>
</svg>
