<svg width="498" height="267" viewBox="0 0 498 267" fill="none" xmlns="http://www.w3.org/2000/svg">
<rect width="498" height="267" fill="white"/>
<path d="M10 90.3186V183.142L42.9602 210H475.948L498 189.975V90.3186L475.948 71H34.6608L10 90.3186Z" fill="black"/>
<path d="M5 84.3186V177.142L37.8926 204H469.993L492 183.975V84.3186L469.993 65H29.6103L5 84.3186Z" fill="white"/>
<mask id="path-3-inside-1_73_15" fill="white">
<path d="M479 169.769V86.9231L452.147 65.0001C268.906 66.3725 29.2722 65 29.2722 65L0 86.9231V169.769L29.2722 194H452.147L479 169.769Z"/>
</mask>
<path d="M479 169.769V86.9231L452.147 65.0001C268.906 66.3725 29.2722 65 29.2722 65L0 86.9231V169.769L29.2722 194H452.147L479 169.769Z" fill="black"/>
<path d="M479.5 86.9231C479.167 86.9231 478.833 86.9231 478.5 86.9231C478.5 106.204 478.5 125.485 478.5 144.766C478.5 153.1 478.5 161.435 478.5 169.769L478.665 169.398C469.714 177.475 460.763 185.552 451.812 193.629L452.147 193.5C451.173 193.5 450.2 193.5 449.227 193.5C437.341 193.5 425.456 193.5 413.571 193.5C285.471 193.5 157.372 193.5 29.2722 193.5L29.591 193.615C19.8336 185.538 10.0762 177.461 0.318827 169.384L0.5 169.769C0.5 142.154 0.5 114.538 0.5 86.9231L0.299728 87.3233C10.0571 80.0156 19.8145 72.7079 29.5719 65.4002L29.2694 65.5C162.447 66.1522 295.726 66.4185 429.002 65.6575C436.639 65.6106 444.525 65.5573 452.151 65.5001L451.831 65.3874C460.782 72.6951 469.733 80.0027 478.684 87.3104C478.895 87.0522 479.105 86.794 479.316 86.5358C470.365 79.2281 461.414 71.9205 452.463 64.6128L452.324 64.4988L452.143 64.5001C444.518 64.5573 436.632 64.6106 428.995 64.6575C295.727 65.4185 162.448 65.1522 29.2751 64.5L29.107 64.499L28.9725 64.5998C19.2151 71.9075 9.45768 79.2152 -0.299728 86.5229L-0.5 86.6729V86.9231C-0.5 114.538 -0.5 142.154 -0.5 169.769V170.004L-0.318827 170.154C9.43858 178.231 19.196 186.308 28.9534 194.385L29.0921 194.5H29.2722C157.372 194.5 285.471 194.5 413.571 194.5C425.456 194.5 437.341 194.5 449.227 194.5C450.2 194.5 451.173 194.5 452.147 194.5H452.339L452.482 194.371C461.433 186.294 470.384 178.217 479.335 170.14L479.5 169.992V169.769C479.5 161.435 479.5 153.1 479.5 144.766C479.5 125.485 479.5 106.204 479.5 86.9231ZM478.5 86.9231H479.5V86.6858L479.316 86.5358L478.684 87.3104L478.5 86.9231Z" fill="black" mask="url(#path-3-inside-1_73_15)"/>
<mask id="path-5-inside-2_73_15" fill="white">
<path d="M470 164.324V90.5052L445.56 70L30.8212 73.6186L10 90.5052V168.502L34.7077 187H445.56L470 164.324Z"/>
</mask>
<path d="M470 164.324V90.5052L445.56 70L30.8212 73.6186L10 90.5052V168.502L34.7077 187H445.56L470 164.324Z" fill="#FFF4F4"/>
<path d="M469.5 164.324C469.833 164.324 470.167 164.324 470.5 164.324C470.483 145.985 470.467 127.646 470.451 109.307C470.445 103.04 470.44 96.7724 470.435 90.5052L470.435 90.3028L470.279 90.1721C462.127 83.344 453.974 76.5158 445.822 69.6874L445.707 69.5908L445.556 69.592C307.311 70.9124 169.066 72.2088 30.82 73.4813L30.7721 73.4817L30.7347 73.5119C23.797 79.1441 16.8593 84.7762 9.92143 90.4083L9.87529 90.4457L9.87526 90.5052C9.88714 116.504 9.89816 142.503 9.90834 168.502L9.90833 168.548L9.94507 168.575C18.1834 174.738 26.4216 180.901 34.6598 187.064L34.6811 187.08L34.7077 187.08C164.433 187.033 294.158 187.006 423.883 187.001C431.108 187.001 438.334 187 445.56 187C452.019 181.007 458.478 175.014 464.938 169.021C466.625 167.455 468.426 166.012 470.34 164.69C470.113 164.446 469.887 164.202 469.66 163.957C468.199 165.767 466.625 167.455 464.938 169.021C458.478 175.014 452.019 181.007 445.559 187C438.334 187 431.108 186.999 423.883 186.999C294.158 186.994 164.433 186.967 34.7077 186.92L34.7557 186.936C26.522 180.767 18.2884 174.598 10.0549 168.429L10.0917 168.502C10.1018 142.503 10.1129 116.504 10.1247 90.5052L10.0786 90.602C17.0216 84.9763 23.9646 79.3507 30.9077 73.7252L30.8224 73.7558C169.069 72.6159 307.316 71.4999 445.563 70.408L445.297 70.3126C453.439 77.1543 461.58 83.9962 469.721 90.8382L469.565 90.5052C469.56 96.7724 469.555 103.04 469.549 109.307C469.533 127.646 469.517 145.985 469.5 164.324ZM470.5 164.324H469.5L469.66 163.957L470.34 164.69L470.5 164.58L470.5 164.324Z" fill="black" mask="url(#path-5-inside-2_73_15)"/>
<path d="M171.261 103.96C174.248 103.96 176.896 104.287 179.206 104.94C181.54 105.57 183.418 106.247 184.841 106.97C186.288 107.693 187.175 108.183 187.501 108.44L181.096 119.29C180.723 119.01 180.07 118.625 179.136 118.135C178.226 117.622 177.2 117.167 176.056 116.77C174.913 116.373 173.816 116.175 172.766 116.175C171.53 116.175 170.503 116.35 169.686 116.7C168.87 117.027 168.461 117.598 168.461 118.415C168.461 118.975 168.683 119.488 169.126 119.955C169.57 120.422 170.316 120.9 171.366 121.39C172.44 121.88 173.898 122.44 175.741 123.07C177.538 123.653 179.183 124.377 180.676 125.24C182.17 126.103 183.453 127.13 184.526 128.32C185.623 129.51 186.475 130.875 187.081 132.415C187.688 133.955 187.991 135.693 187.991 137.63C187.991 140.197 187.455 142.39 186.381 144.21C185.331 146.007 183.92 147.465 182.146 148.585C180.373 149.705 178.39 150.522 176.196 151.035C174.026 151.572 171.821 151.84 169.581 151.84C166.151 151.84 163.095 151.467 160.411 150.72C157.751 149.973 155.593 149.168 153.936 148.305C152.303 147.418 151.3 146.788 150.926 146.415L157.541 135.11C157.798 135.32 158.346 135.658 159.186 136.125C160.05 136.592 161.076 137.082 162.266 137.595C163.48 138.108 164.728 138.552 166.011 138.925C167.295 139.275 168.485 139.45 169.581 139.45C171.051 139.45 172.136 139.24 172.836 138.82C173.536 138.4 173.886 137.793 173.886 137C173.886 136.44 173.665 135.915 173.221 135.425C172.801 134.935 172.031 134.422 170.911 133.885C169.815 133.325 168.251 132.683 166.221 131.96C164.261 131.237 162.395 130.292 160.621 129.125C158.848 127.958 157.401 126.442 156.281 124.575C155.161 122.708 154.601 120.375 154.601 117.575C154.601 114.728 155.395 112.29 156.981 110.26C158.568 108.23 160.633 106.678 163.176 105.605C165.72 104.508 168.415 103.96 171.261 103.96ZM219.495 151V146.975C219.262 147.395 218.737 148.002 217.92 148.795C217.127 149.565 216.077 150.265 214.77 150.895C213.487 151.525 211.982 151.84 210.255 151.84C207.385 151.84 204.912 151.128 202.835 149.705C200.782 148.258 199.207 146.38 198.11 144.07C197.014 141.76 196.465 139.287 196.465 136.65C196.465 134.013 197.014 131.54 198.11 129.23C199.207 126.92 200.782 125.042 202.835 123.595C204.912 122.148 207.385 121.425 210.255 121.425C211.889 121.425 213.312 121.658 214.525 122.125C215.739 122.568 216.742 123.117 217.535 123.77C218.352 124.4 218.959 125.018 219.355 125.625V122.265H233.075V151H219.495ZM209.975 136.65C209.975 137.443 210.174 138.19 210.57 138.89C210.967 139.59 211.515 140.15 212.215 140.57C212.915 140.99 213.732 141.2 214.665 141.2C215.599 141.2 216.415 140.99 217.115 140.57C217.815 140.15 218.364 139.59 218.76 138.89C219.157 138.19 219.355 137.443 219.355 136.65C219.355 135.857 219.157 135.11 218.76 134.41C218.364 133.71 217.815 133.15 217.115 132.73C216.415 132.287 215.599 132.065 214.665 132.065C213.732 132.065 212.915 132.287 212.215 132.73C211.515 133.15 210.967 133.71 210.57 134.41C210.174 135.11 209.975 135.857 209.975 136.65ZM240.629 122.265H255.364L260.614 138.575L265.899 122.265H280.564L268.699 151H252.564L240.629 122.265ZM299.746 139.345C299.863 139.905 300.155 140.383 300.621 140.78C301.111 141.153 301.73 141.445 302.476 141.655C303.246 141.865 304.11 141.97 305.066 141.97C306.093 141.97 307.096 141.923 308.076 141.83C309.056 141.737 309.955 141.585 310.771 141.375C311.588 141.165 312.241 140.897 312.731 140.57L317.666 149.215C317.223 149.495 316.488 149.845 315.461 150.265C314.458 150.662 313.035 151.023 311.191 151.35C309.371 151.677 307.015 151.84 304.121 151.84C300.878 151.84 297.938 151.292 295.301 150.195C292.665 149.098 290.565 147.407 289.001 145.12C287.461 142.81 286.691 139.882 286.691 136.335C286.691 133.535 287.333 131.015 288.616 128.775C289.9 126.512 291.755 124.727 294.181 123.42C296.608 122.09 299.548 121.425 303.001 121.425C306.338 121.425 309.22 121.985 311.646 123.105C314.096 124.225 315.975 125.952 317.281 128.285C318.611 130.595 319.276 133.558 319.276 137.175C319.276 137.362 319.265 137.735 319.241 138.295C319.241 138.832 319.218 139.182 319.171 139.345H299.746ZM306.291 133.71C306.268 132.94 306.116 132.298 305.836 131.785C305.58 131.272 305.23 130.898 304.786 130.665C304.343 130.408 303.818 130.28 303.211 130.28C302.675 130.28 302.161 130.397 301.671 130.63C301.205 130.84 300.82 131.202 300.516 131.715C300.213 132.205 300.05 132.87 300.026 133.71H306.291Z" fill="black"/>
</svg>
