<svg width="1111" height="136" viewBox="0 0 1111 136" fill="none" xmlns="http://www.w3.org/2000/svg">
<path d="M155.2 1.59997V133.6H116.5V68L118.1 40.8L112 72.5L96.5001 120.8H58.6001L43.2001 72.5L37.1001 40.8L38.7001 68V133.6H9.79602e-05V1.59997H55.4001L75.4001 78.9L77.6001 92L79.8001 78.9L99.8001 1.59997H155.2ZM250.577 133.6V122.1C249.91 123.3 248.41 125.033 246.077 127.3C243.81 129.5 240.81 131.5 237.077 133.3C233.41 135.1 229.11 136 224.177 136C215.977 136 208.91 133.967 202.977 129.9C197.11 125.767 192.61 120.4 189.477 113.8C186.343 107.2 184.777 100.133 184.777 92.6C184.777 85.0666 186.343 78 189.477 71.4C192.61 64.8 197.11 59.4333 202.977 55.3C208.91 51.1666 215.977 49.1 224.177 49.1C228.843 49.1 232.91 49.7666 236.377 51.1C239.843 52.3666 242.71 53.9333 244.977 55.8C247.31 57.6 249.043 59.3666 250.177 61.1V51.5H289.377V133.6H250.577ZM223.377 92.6C223.377 94.8666 223.943 97 225.077 99C226.21 101 227.777 102.6 229.777 103.8C231.777 105 234.11 105.6 236.777 105.6C239.443 105.6 241.777 105 243.777 103.8C245.777 102.6 247.343 101 248.477 99C249.61 97 250.177 94.8666 250.177 92.6C250.177 90.3333 249.61 88.2 248.477 86.2C247.343 84.2 245.777 82.6 243.777 81.4C241.777 80.1333 239.443 79.5 236.777 79.5C234.11 79.5 231.777 80.1333 229.777 81.4C227.777 82.6 226.21 84.2 225.077 86.2C223.943 88.2 223.377 90.3333 223.377 92.6ZM318.359 133.6V51.5H357.659V133.6H318.359ZM338.459 42.4C332.593 42.4 327.593 40.3333 323.459 36.2C319.393 32 317.359 27.0333 317.359 21.3C317.359 15.5666 319.393 10.6 323.459 6.39997C327.593 2.1333 332.593 -3.29018e-05 338.459 -3.29018e-05C342.326 -3.29018e-05 345.859 0.966635 349.059 2.89997C352.259 4.8333 354.826 7.39997 356.759 10.6C358.759 13.8 359.759 17.3666 359.759 21.3C359.759 27.0333 357.659 32 353.459 36.2C349.326 40.3333 344.326 42.4 338.459 42.4ZM450.495 49.1C456.562 49.1 462.429 50.3 468.095 52.7C473.829 55.0333 478.529 58.8 482.195 64C485.929 69.1333 487.795 75.9 487.795 84.3V133.6H448.395V90.4C448.395 86.1333 447.329 82.7666 445.195 80.3C443.129 77.7666 440.329 76.5 436.795 76.5C434.462 76.5 432.295 77.0666 430.295 78.2C428.362 79.3333 426.829 80.9333 425.695 83C424.562 85.0666 423.995 87.5333 423.995 90.4V133.6H384.595V51.5H423.995V61.8C424.862 59.6666 426.562 57.6333 429.095 55.7C431.629 53.7666 434.762 52.2 438.495 51C442.229 49.7333 446.229 49.1 450.495 49.1ZM735.903 1.59997V133.6H697.203V68L698.803 40.8L692.703 72.5L677.203 120.8H639.303L623.903 72.5L617.803 40.8L619.403 68V133.6H580.703V1.59997H636.103L656.103 78.9L658.303 92L660.503 78.9L680.503 1.59997H735.903ZM802.78 100.3C803.113 101.9 803.946 103.267 805.28 104.4C806.68 105.467 808.446 106.3 810.58 106.9C812.78 107.5 815.246 107.8 817.98 107.8C820.913 107.8 823.78 107.667 826.58 107.4C829.38 107.133 831.946 106.7 834.28 106.1C836.613 105.5 838.48 104.733 839.88 103.8L853.98 128.5C852.713 129.3 850.613 130.3 847.68 131.5C844.813 132.633 840.746 133.667 835.48 134.6C830.28 135.533 823.546 136 815.28 136C806.013 136 797.613 134.433 790.08 131.3C782.546 128.167 776.546 123.333 772.08 116.8C767.68 110.2 765.48 101.833 765.48 91.7C765.48 83.7 767.313 76.5 770.98 70.1C774.646 63.6333 779.946 58.5333 786.88 54.8C793.813 51 802.213 49.1 812.08 49.1C821.613 49.1 829.846 50.7 836.78 53.9C843.78 57.1 849.146 62.0333 852.88 68.7C856.68 75.3 858.58 83.7666 858.58 94.1C858.58 94.6333 858.546 95.7 858.48 97.3C858.48 98.8333 858.413 99.8333 858.28 100.3H802.78ZM821.48 84.2C821.413 82 820.98 80.1666 820.18 78.7C819.446 77.2333 818.446 76.1666 817.18 75.5C815.913 74.7666 814.413 74.4 812.68 74.4C811.146 74.4 809.68 74.7333 808.28 75.4C806.946 76 805.846 77.0333 804.98 78.5C804.113 79.9 803.646 81.8 803.58 84.2H821.48ZM947.714 49.1C953.781 49.1 959.647 50.3 965.314 52.7C971.047 55.0333 975.747 58.8 979.414 64C983.147 69.1333 985.014 75.9 985.014 84.3V133.6H945.614V90.4C945.614 86.1333 944.547 82.7666 942.414 80.3C940.347 77.7666 937.547 76.5 934.014 76.5C931.681 76.5 929.514 77.0666 927.514 78.2C925.581 79.3333 924.047 80.9333 922.914 83C921.781 85.0666 921.214 87.5333 921.214 90.4V133.6H881.814V51.5H921.214V61.8C922.081 59.6666 923.781 57.6333 926.314 55.7C928.847 53.7666 931.981 52.2 935.714 51C939.447 49.7333 943.447 49.1 947.714 49.1ZM1048.55 87.2C1048.55 92.2666 1049.35 96.3333 1050.95 99.4C1052.62 102.467 1055.72 104 1060.25 104C1064.92 104 1068.05 102.467 1069.65 99.4C1071.25 96.3333 1072.05 92.2666 1072.05 87.2V51.5H1110.85V91C1110.85 100.333 1108.85 108.367 1104.85 115.1C1100.92 121.833 1095.18 127 1087.65 130.6C1080.12 134.2 1070.98 136 1060.25 136C1049.58 136 1040.48 134.2 1032.95 130.6C1025.48 127 1019.75 121.833 1015.75 115.1C1011.82 108.367 1009.85 100.333 1009.85 91V51.5H1048.55V87.2Z" fill="#FFF7F7"/>
<path d="M155.2 1.59997V133.6H116.5V68L118.1 40.8L112 72.5L96.5001 120.8H58.6001L43.2001 72.5L37.1001 40.8L38.7001 68V133.6H9.79602e-05V1.59997H55.4001L75.4001 78.9L77.6001 92L79.8001 78.9L99.8001 1.59997H155.2ZM250.577 133.6V122.1C249.91 123.3 248.41 125.033 246.077 127.3C243.81 129.5 240.81 131.5 237.077 133.3C233.41 135.1 229.11 136 224.177 136C215.977 136 208.91 133.967 202.977 129.9C197.11 125.767 192.61 120.4 189.477 113.8C186.343 107.2 184.777 100.133 184.777 92.6C184.777 85.0666 186.343 78 189.477 71.4C192.61 64.8 197.11 59.4333 202.977 55.3C208.91 51.1666 215.977 49.1 224.177 49.1C228.843 49.1 232.91 49.7666 236.377 51.1C239.843 52.3666 242.71 53.9333 244.977 55.8C247.31 57.6 249.043 59.3666 250.177 61.1V51.5H289.377V133.6H250.577ZM223.377 92.6C223.377 94.8666 223.943 97 225.077 99C226.21 101 227.777 102.6 229.777 103.8C231.777 105 234.11 105.6 236.777 105.6C239.443 105.6 241.777 105 243.777 103.8C245.777 102.6 247.343 101 248.477 99C249.61 97 250.177 94.8666 250.177 92.6C250.177 90.3333 249.61 88.2 248.477 86.2C247.343 84.2 245.777 82.6 243.777 81.4C241.777 80.1333 239.443 79.5 236.777 79.5C234.11 79.5 231.777 80.1333 229.777 81.4C227.777 82.6 226.21 84.2 225.077 86.2C223.943 88.2 223.377 90.3333 223.377 92.6ZM318.359 133.6V51.5H357.659V133.6H318.359ZM338.459 42.4C332.593 42.4 327.593 40.3333 323.459 36.2C319.393 32 317.359 27.0333 317.359 21.3C317.359 15.5666 319.393 10.6 323.459 6.39997C327.593 2.1333 332.593 -3.29018e-05 338.459 -3.29018e-05C342.326 -3.29018e-05 345.859 0.966635 349.059 2.89997C352.259 4.8333 354.826 7.39997 356.759 10.6C358.759 13.8 359.759 17.3666 359.759 21.3C359.759 27.0333 357.659 32 353.459 36.2C349.326 40.3333 344.326 42.4 338.459 42.4ZM450.495 49.1C456.562 49.1 462.429 50.3 468.095 52.7C473.829 55.0333 478.529 58.8 482.195 64C485.929 69.1333 487.795 75.9 487.795 84.3V133.6H448.395V90.4C448.395 86.1333 447.329 82.7666 445.195 80.3C443.129 77.7666 440.329 76.5 436.795 76.5C434.462 76.5 432.295 77.0666 430.295 78.2C428.362 79.3333 426.829 80.9333 425.695 83C424.562 85.0666 423.995 87.5333 423.995 90.4V133.6H384.595V51.5H423.995V61.8C424.862 59.6666 426.562 57.6333 429.095 55.7C431.629 53.7666 434.762 52.2 438.495 51C442.229 49.7333 446.229 49.1 450.495 49.1ZM735.903 1.59997V133.6H697.203V68L698.803 40.8L692.703 72.5L677.203 120.8H639.303L623.903 72.5L617.803 40.8L619.403 68V133.6H580.703V1.59997H636.103L656.103 78.9L658.303 92L660.503 78.9L680.503 1.59997H735.903ZM802.78 100.3C803.113 101.9 803.946 103.267 805.28 104.4C806.68 105.467 808.446 106.3 810.58 106.9C812.78 107.5 815.246 107.8 817.98 107.8C820.913 107.8 823.78 107.667 826.58 107.4C829.38 107.133 831.946 106.7 834.28 106.1C836.613 105.5 838.48 104.733 839.88 103.8L853.98 128.5C852.713 129.3 850.613 130.3 847.68 131.5C844.813 132.633 840.746 133.667 835.48 134.6C830.28 135.533 823.546 136 815.28 136C806.013 136 797.613 134.433 790.08 131.3C782.546 128.167 776.546 123.333 772.08 116.8C767.68 110.2 765.48 101.833 765.48 91.7C765.48 83.7 767.313 76.5 770.98 70.1C774.646 63.6333 779.946 58.5333 786.88 54.8C793.813 51 802.213 49.1 812.08 49.1C821.613 49.1 829.846 50.7 836.78 53.9C843.78 57.1 849.146 62.0333 852.88 68.7C856.68 75.3 858.58 83.7666 858.58 94.1C858.58 94.6333 858.546 95.7 858.48 97.3C858.48 98.8333 858.413 99.8333 858.28 100.3H802.78ZM821.48 84.2C821.413 82 820.98 80.1666 820.18 78.7C819.446 77.2333 818.446 76.1666 817.18 75.5C815.913 74.7666 814.413 74.4 812.68 74.4C811.146 74.4 809.68 74.7333 808.28 75.4C806.946 76 805.846 77.0333 804.98 78.5C804.113 79.9 803.646 81.8 803.58 84.2H821.48ZM947.714 49.1C953.781 49.1 959.647 50.3 965.314 52.7C971.047 55.0333 975.747 58.8 979.414 64C983.147 69.1333 985.014 75.9 985.014 84.3V133.6H945.614V90.4C945.614 86.1333 944.547 82.7666 942.414 80.3C940.347 77.7666 937.547 76.5 934.014 76.5C931.681 76.5 929.514 77.0666 927.514 78.2C925.581 79.3333 924.047 80.9333 922.914 83C921.781 85.0666 921.214 87.5333 921.214 90.4V133.6H881.814V51.5H921.214V61.8C922.081 59.6666 923.781 57.6333 926.314 55.7C928.847 53.7666 931.981 52.2 935.714 51C939.447 49.7333 943.447 49.1 947.714 49.1ZM1048.55 87.2C1048.55 92.2666 1049.35 96.3333 1050.95 99.4C1052.62 102.467 1055.72 104 1060.25 104C1064.92 104 1068.05 102.467 1069.65 99.4C1071.25 96.3333 1072.05 92.2666 1072.05 87.2V51.5H1110.85V91C1110.85 100.333 1108.85 108.367 1104.85 115.1C1100.92 121.833 1095.18 127 1087.65 130.6C1080.12 134.2 1070.98 136 1060.25 136C1049.58 136 1040.48 134.2 1032.95 130.6C1025.48 127 1019.75 121.833 1015.75 115.1C1011.82 108.367 1009.85 100.333 1009.85 91V51.5H1048.55V87.2Z" fill="#F8F8F8" fill-opacity="0.2"/>
</svg>
